<mxfile host="app.diagrams.net" modified="2021-01-15T07:46:40.691Z" agent="5.0 (Windows NT 10.0; Win64; x64) AppleWebKit/537.36 (KHTML, like Gecko) Chrome/87.0.4280.66 Safari/537.36" etag="yO1llgXvBdX8FS11geSI" version="14.2.3" type="github">
  <diagram id="PzDSFrPXXa8TcoYXROBa" name="Page-1">
    <mxGraphModel dx="1038" dy="582" grid="0" gridSize="10" guides="0" tooltips="1" connect="1" arrows="1" fold="1" page="0" pageScale="1" pageWidth="8000" pageHeight="10000" background="#FFFFFF" math="0" shadow="0">
      <root>
        <mxCell id="0" />
        <mxCell id="1" parent="0" />
        <mxCell id="c08FlW1YmGHK_6L1Ej0A-1" value="&lt;div&gt;&lt;span&gt;执行器&lt;/span&gt;&lt;/div&gt;" style="rounded=1;whiteSpace=wrap;html=1;sketch=1;align=center;arcSize=16;verticalAlign=top;fillColor=#fff2cc;strokeColor=#d6b656;fillStyle=hachure;" vertex="1" parent="1">
          <mxGeometry x="80" y="110" width="310" height="470" as="geometry" />
        </mxCell>
        <mxCell id="c08FlW1YmGHK_6L1Ej0A-2" value="任务" style="rounded=1;whiteSpace=wrap;html=1;sketch=1;verticalAlign=top;fillColor=#dae8fc;strokeColor=#6c8ebf;" vertex="1" parent="1">
          <mxGeometry x="120" y="260" width="230" height="300" as="geometry" />
        </mxCell>
        <mxCell id="c08FlW1YmGHK_6L1Ej0A-3" value="任务1" style="rounded=1;whiteSpace=wrap;html=1;sketch=1;fillColor=#d5e8d4;strokeColor=#82b366;" vertex="1" parent="1">
          <mxGeometry x="170" y="320" width="120" height="60" as="geometry" />
        </mxCell>
        <mxCell id="c08FlW1YmGHK_6L1Ej0A-4" value="任务2" style="rounded=1;whiteSpace=wrap;html=1;sketch=1;fillColor=#d5e8d4;strokeColor=#82b366;" vertex="1" parent="1">
          <mxGeometry x="170" y="390" width="120" height="60" as="geometry" />
        </mxCell>
        <mxCell id="c08FlW1YmGHK_6L1Ej0A-5" value="任务3" style="rounded=1;whiteSpace=wrap;html=1;sketch=1;fillColor=#d5e8d4;strokeColor=#82b366;" vertex="1" parent="1">
          <mxGeometry x="170" y="460" width="120" height="60" as="geometry" />
        </mxCell>
        <mxCell id="c08FlW1YmGHK_6L1Ej0A-6" value="&lt;b&gt;&lt;strike&gt;&lt;font color=&quot;#1a1a1a&quot;&gt;触发器&lt;/font&gt;&lt;/strike&gt;&lt;/b&gt;" style="rounded=1;whiteSpace=wrap;html=1;sketch=1;fillColor=#e3c800;strokeColor=#B09500;fontColor=#ffffff;" vertex="1" parent="1">
          <mxGeometry x="132" y="173" width="202" height="66" as="geometry" />
        </mxCell>
      </root>
    </mxGraphModel>
  </diagram>
</mxfile>
